<svg version="1.1" id="Layer_1" xmlns="http://www.w3.org/2000/svg" xmlns:xlink="http://www.w3.org/1999/xlink" x="0px" y="0px"
	 width="100%" viewBox="0 0 896 896" enable-background="new 0 0 896 896" xml:space="preserve">
<path fill="#ffffff" opacity="1.000000" stroke="none" 
	d="
M897.000000,776.562500 
	C873.239624,764.934875 848.881226,754.257629 823.776184,745.290588 
	C781.465698,730.178162 738.116089,718.788086 694.169617,709.717285 
	C665.602722,703.820984 636.912598,698.458435 607.873901,695.253601 
	C603.102844,694.727112 598.438721,693.305115 593.586487,693.321228 
	C591.368713,693.328552 590.495178,691.843140 589.622803,690.114014 
	C584.077209,679.122620 578.524231,668.133972 572.832458,657.218018 
	C571.463745,654.593018 571.841431,652.609863 573.621338,650.403992 
	C587.930969,632.669189 602.012573,614.747925 616.485596,597.148193 
	C637.097351,572.083679 658.437134,547.641113 680.381165,523.728455 
	C685.051941,518.638672 685.331543,518.613831 690.388062,523.764282 
	C723.175964,557.161133 754.807861,591.627991 785.296387,627.125366 
	C823.603638,671.725952 860.052063,717.804016 893.999939,765.831116 
	C894.863464,767.052673 895.671570,768.313416 896.752747,769.777954 
	C897.000000,772.041687 897.000000,774.083313 897.000000,776.562500 
z"/>
<path fill="#ffffff" opacity="1.000000" stroke="none" 
	d="
M305.527039,310.474609 
	C236.525208,244.129150 163.055893,183.838486 84.047592,130.208908 
	C200.360687,165.611526 307.241882,220.420181 409.318329,288.110168 
	C423.995209,238.932373 438.445526,190.513672 452.895844,142.094986 
	C453.251038,142.067459 453.606232,142.039932 453.961426,142.012405 
	C456.319183,149.662567 458.745178,157.292465 461.023163,164.966309 
	C472.512024,203.668671 483.950653,242.385925 495.438049,281.088715 
	C497.282043,287.301453 498.037323,287.647278 503.505737,284.059387 
	C540.005554,260.111542 577.326172,237.548843 615.819397,216.933594 
	C673.309509,186.144501 732.657288,159.606873 794.448303,138.643417 
	C802.952271,135.758316 811.526978,133.081711 820.064758,130.295883 
	C821.125122,129.949890 822.163391,129.157822 823.314819,130.426208 
	C682.864624,225.880371 559.413452,339.647156 453.377777,473.467468 
	C407.786621,415.598511 358.710754,361.398346 305.527039,310.474609 
z"/>
<path fill="#ffffff" opacity="1.000000" stroke="none" 
	d="
M397.635864,550.593994 
	C384.439636,570.845703 371.528839,590.844666 359.508881,611.411926 
	C345.134583,636.007751 331.361786,660.923645 319.115906,686.648987 
	C316.956146,691.186096 314.495911,693.030151 309.171722,693.680176 
	C289.247437,696.112549 269.378357,699.150940 249.602676,702.613831 
	C211.632217,709.262695 173.999985,717.504395 136.915436,728.114258 
	C92.666962,740.773682 49.440937,756.070740 8.723152,777.835144 
	C7.735583,778.362976 6.772262,779.070923 5.143251,778.683044 
	C6.289781,774.063660 9.476613,770.813599 11.953508,767.262390 
	C30.243549,741.039124 49.534409,715.562744 69.392982,690.506226 
	C88.319397,666.625854 107.736076,643.162048 127.677353,620.121643 
	C162.469635,579.922241 198.656677,541.024719 236.551254,503.743683 
	C255.785873,484.820557 275.335083,466.201202 295.176910,447.916382 
	C310.718903,433.593964 326.998535,420.074585 342.781403,406.008698 
	C345.691528,403.415192 347.339630,403.911926 349.698395,406.473236 
	C365.723846,423.874878 381.332306,441.642792 396.396088,459.877838 
	C407.000092,472.714233 417.209198,485.876526 427.776520,498.743896 
	C430.316864,501.837158 430.498505,504.114532 428.086914,507.454071 
	C417.853577,521.625183 407.899841,535.998291 397.635864,550.593994 
z"/>
<path fill="#ffffff" opacity="1.000000" stroke="none" 
	d="
M557.486877,535.525269 
	C576.301575,512.422424 595.189331,489.846344 614.601807,467.709198 
	C622.940613,458.200012 622.873779,458.083435 632.104187,466.847443 
	C640.314148,474.642578 648.372314,482.599091 656.655701,490.314514 
	C659.542908,493.003754 659.347229,494.728790 656.631836,497.593567 
	C639.228027,515.954895 622.599121,535.020081 606.171692,554.254578 
	C588.674561,574.741577 571.427490,595.438293 554.994385,616.799194 
	C554.414551,617.552917 553.542725,618.081970 552.581360,618.910034 
	C548.565063,614.995178 546.715881,609.903015 543.865417,605.516724 
	C538.607971,597.426514 533.876221,588.995789 528.670959,580.869995 
	C526.445007,577.395203 526.561707,574.768433 529.197754,571.499390 
	C538.698364,559.717224 547.936096,547.723022 557.486877,535.525269 
z"/>
<path fill="#ffffff" opacity="1.000000" stroke="none" 
	d="
M570.076050,410.907562 
	C577.838257,417.732483 585.240356,424.433105 592.884277,430.845520 
	C596.044434,433.496521 596.137878,435.457916 593.373108,438.520660 
	C563.820068,471.258545 536.073914,505.509705 508.672272,540.046082 
	C507.742615,541.217712 506.816254,542.401978 505.312866,542.971863 
	C503.318634,542.813293 502.731659,541.012817 501.822052,539.736450 
	C494.001007,528.761475 486.402466,517.624023 478.389740,506.792297 
	C476.178772,503.803497 476.700348,501.956299 478.670990,499.394348 
	C492.873688,480.930267 507.623138,462.911041 522.834290,445.276672 
	C533.698914,432.681305 544.839905,420.324158 555.877197,407.878143 
	C560.420166,402.755341 560.441162,402.778900 565.593567,407.148956 
	C566.990173,408.333496 568.406311,409.495026 570.076050,410.907562 
z"/>
</svg>