<svg version="1.1" id="Layer_1" xmlns="http://www.w3.org/2000/svg" xmlns:xlink="http://www.w3.org/1999/xlink" x="0px" y="0px"
	 width="100%" viewBox="0 0 127 124" enable-background="new 0 0 127 124" xml:space="preserve">

<path fill="#FFFFFF" opacity="1.000000" stroke="none" 
	d="
M88.013809,34.908592 
	C93.229301,36.272388 98.461670,37.575386 103.655357,39.017689 
	C108.505440,40.364571 113.314430,41.859375 118.796471,43.483063 
	C110.036598,48.637768 102.079681,53.288967 94.160507,58.003551 
	C92.363998,59.073078 90.267639,60.037277 89.069672,61.624023 
	C87.083992,64.254112 84.362976,66.413330 87.941978,70.780045 
	C94.832970,79.187737 104.582298,83.466255 112.743713,89.969009 
	C114.357635,91.254936 116.261589,92.176849 118.975960,93.847893 
	C113.415077,101.013863 108.028954,107.825516 102.796402,114.753174 
	C100.264236,118.105644 97.822304,117.660683 94.839874,115.395721 
	C88.080612,110.262520 80.971809,105.877594 72.736252,103.207832 
	C65.353424,100.814491 58.696426,102.926743 51.754635,104.594803 
	C45.645821,106.062714 39.455353,107.344566 33.226532,108.066803 
	C31.327723,108.286972 29.182188,106.379288 27.149651,105.446121 
	C27.951935,103.951241 29.030331,102.537323 29.497448,100.944176 
	C30.393894,97.886757 30.943525,94.727661 31.705269,91.304054 
	C34.207905,93.095261 37.034176,95.118103 40.237282,97.410652 
	C44.760345,93.509682 49.314156,89.805725 53.605793,85.819519 
	C58.125381,81.621574 59.863312,81.423248 52.657574,74.513031 
	C49.680008,77.178764 46.658932,79.883446 43.268452,82.918846 
	C39.259212,78.362122 36.660358,71.051796 28.262451,73.001617 
	C22.119555,74.427887 15.977203,75.856491 9.420189,77.380363 
	C6.904674,69.938972 10.338432,63.097069 15.864823,56.518517 
	C21.862087,49.379444 29.632288,44.936707 37.670406,40.726215 
	C39.376446,39.832565 40.880684,38.553661 43.138386,37.219006 
	C49.005264,35.830856 54.211655,34.675957 59.418041,33.521053 
	C59.788887,34.254658 60.159733,34.988258 60.530579,35.721863 
	C47.008778,42.156925 34.376793,49.600983 26.536007,63.998180 
	C28.775026,64.145798 30.389629,64.252251 32.311470,64.371750 
	C33.028664,64.390656 33.438625,64.396523 33.935150,64.785675 
	C36.187706,65.691055 38.337112,66.571335 40.522587,66.672516 
	C49.431404,67.084946 58.674580,67.674706 65.478462,60.496223 
	C73.291740,52.252769 80.527306,43.461758 88.013809,34.908592 
z"/>
<path fill="#6E6E6F" opacity="1.000000" stroke="none" 
	d="
M88.145035,34.599712 
	C80.527306,43.461758 73.291740,52.252769 65.478462,60.496223 
	C58.674580,67.674706 49.431404,67.084946 40.522587,66.672516 
	C38.337112,66.571335 36.187706,65.691055 34.348095,64.613190 
	C36.170300,64.074448 37.898369,63.606636 39.121639,64.192619 
	C44.350632,66.697472 47.552677,63.138008 50.907475,60.422848 
	C53.255585,58.522438 55.527950,56.324226 57.184280,53.827835 
	C59.024200,51.054745 60.126076,47.791977 62.022728,43.727928 
	C49.563610,46.004562 39.832706,49.948742 32.849808,58.805733 
	C31.841822,60.084240 32.250912,62.479973 32.004234,64.358696 
	C30.389629,64.252251 28.775026,64.145798 26.536007,63.998180 
	C34.376793,49.600983 47.008778,42.156925 60.530579,35.721863 
	C60.159733,34.988258 59.788887,34.254658 59.418041,33.521053 
	C54.211655,34.675957 49.005264,35.830856 43.389683,36.983982 
	C51.766579,28.052717 60.552666,19.123228 69.338753,10.193739 
	C68.923302,18.632895 62.899963,25.145872 63.989059,33.632591 
	C74.051872,29.303310 83.069511,25.387657 92.123749,21.558514 
	C93.949783,20.786261 95.914474,20.341848 98.274506,19.763117 
	C98.733772,19.779947 99.093544,20.083012 99.093536,20.083010 
	C95.487785,24.818949 91.882027,29.554890 88.145035,34.599712 
z"/>
<path fill="#6E6E6F" opacity="1.000000" stroke="none" 
	d="
M98.562546,19.618702 
	C98.701759,18.736767 99.012199,18.016081 99.322639,17.295395 
	C99.742584,17.643326 100.162529,17.991257 100.582474,18.339188 
	C100.275513,18.854509 99.968559,19.369829 99.377571,19.984081 
	C99.093544,20.083012 98.733772,19.779947 98.562546,19.618702 
z"/>

</svg>