<svg xmlns="http://www.w3.org/2000/svg" viewBox="0 0 342 461"><path fill="#fff" d="M197.1 2.6c-4.1 1.3-8.8 3-10.5 3.8-1.7.7-4.6 1.7-6.3 2.1-1.8.3-3.5 1.1-3.8 1.6-.4.5-1.3.9-2.2.9-1.4 0-6.6 2-10.5 4.1-1 .5-2.3.9-2.9.9s-2.7.7-4.7 1.6c-4.2 1.8-7.5 3.2-11.2 4.6-7.5 3-32.4 15-33.7 16.4-.7.7-2.9 1.8-4.8 2.4s-3.5 1.6-3.5 2.1-.6.9-1.3.9c-.8 0-2.4.9-3.7 2s-2.9 2-3.7 2c-.7 0-1.3.4-1.3 1 0 .5-.7 1-1.5 1s-1.5.4-1.5 1c0 .5-.6 1-1.3 1s-2.3.9-3.5 2-2.6 2-3.2 2c-.5 0-1 .4-1 1 0 .5-.7 1-1.5 1s-1.5.4-1.5.8-1.5 1.6-3.3 2.7c-1.7 1-3.6 2.3-4.2 2.7-1.4 1.1-4.9 3.9-8 6.3-2.7 2.1-4.1 3.3-12.2 10C44 85.7 35.4 94.4 31 99.9c-1.9 2.4-4.5 5.5-5.7 6.9-1.3 1.4-2.3 2.8-2.3 3.2 0 .3-.8 1.5-1.7 2.6-2.5 2.8-4.2 5.5-5.4 8.6-.6 1.6-1.4 2.8-1.8 2.8-.6 0-4.4 7.7-7.3 15-.6 1.4-1.5 3.4-2 4.5-3 6.8-4 14-4.5 32-.5 17-.3 19.9 1.6 27.8 1.2 4.8 2.7 10 3.3 11.5s1.4 3.6 1.9 4.7c.4 1.1 2.7 5.9 5.1 10.7s4.7 9.7 5.3 10.8c.5 1.1 1.3 2 1.7 2 .5 0 .8.5.8 1 0 .6.5 1.6 1 2.3 2.3 2.7 4.6 5.6 6 7.7.8 1.2 2.4 3.2 3.5 4.5s3.8 4.4 6 7 9.2 10 15.7 16.4c12.3 12.2 18.1 17.5 29.4 26.6 11.6 9.3 25.9 23.7 31.9 32 1.1 1.5 2.6 3.3 3.3 4 .6.8 1.2 1.8 1.2 2.4s.4 1.1.8 1.1c.5 0 1.5 1.2 2.3 2.7.8 1.6 1.6 3 1.9 3.3.5.5 8.4 16.6 10 20.5 7.8 18.7 12.4 46.8 11.7 70.8l-.5 15.7h2.4c1.3 0 3.2-.4 4.2-.9 1.7-.9 5.1-2.3 9.5-4 3.7-1.4 8.1-3.3 9.9-4.2 1-.5 2.2-.9 2.8-.9s3.2-.9 5.8-2.1 6.3-2.8 8.2-3.6c9.3-4.1 14.3-6.4 23.3-10.9 13.7-6.8 19.7-9.9 21.6-11.3 1.6-1.2 4.9-3.1 8.6-5.1 1.1-.6 3.4-1.9 5-3 1.7-1.1 3.8-2.3 4.8-2.6.9-.4 1.7-1 1.7-1.5s.7-.9 1.5-.9 1.5-.5 1.5-1c0-.6.7-1 1.5-1s1.5-.5 1.5-1c0-.6.7-1 1.5-1s1.5-.5 1.5-1c0-.6.5-1 1-1 .6 0 1.6-.5 2.3-1 5.1-4.3 6.5-5.4 8.7-6.9 2.9-1.9 3.7-2.4 7.1-5.4 1.5-1.2 4.1-3.3 6-4.7 4.4-3.3 26.9-25.7 29.4-29.3 1.9-2.7 4.3-5.8 6.5-8.4.5-.7 1-1.7 1-2.3 0-.5.5-1 1-1 .6 0 1-.6 1-1.4s.6-2.1 1.3-2.8 2.9-4.9 5-9.3c9.7-20.3 10-21.7 10.5-44.6.4-18.5.2-20.3-2.2-29.9-1.4-5.7-3.4-12.1-4.5-14.4-1-2.2-2.9-6.5-4.2-9.4-1.2-2.8-2.6-5.2-3-5.2s-1.1-1-1.5-2.3c-.6-1.9-5-9-7.6-12.2-.5-.6-1.6-2-2.6-3.1-6.1-7.6-10-11.9-23.1-25.1-8-8.2-18.6-18.7-23.6-23.4-9.9-9.3-24.3-24.4-29-30.3-1.6-2.1-3.7-4.6-4.5-5.6s-2.2-2.8-3-4-2-2.8-2.5-3.4c-1.1-1.1-5.8-8.2-8.2-12.1-1.4-2.4-9.4-18.5-11.6-23.5-6.9-15.4-8.6-47.2-3.7-69 1.2-5.2 2.4-10.5 2.7-11.8.5-1.9.1-2.2-2.3-2.1-1.6.1-6.2 1.2-10.3 2.5m-35.5 59.2c.6.4 2 4.5 3.1 9.2 3.2 13.1 5 19.2 6.7 22.5.9 1.6 1.6 3.6 1.6 4.3s.4 2 .9 3c.4.9 1.5 3.3 2.3 5.2.9 1.9 3.4 7.3 5.6 12 3.8 8.2 6.2 13.7 6.2 14.5 0 .4-45.4-22.6-55.5-28.1-3.3-1.8-7.7-4-9.7-4.9-2.1-1-3.8-2.1-3.8-2.6s-.6-.9-1.4-.9-2.1-.6-2.8-1.4c-.8-.7-2.3-1.6-3.5-2-3.4-1.1-3.5-3.4-.3-5.3 1.7-.9 3-2.1 3-2.5s.7-.8 1.5-.8 1.5-.5 1.5-1c0-.6.7-1 1.5-1s1.5-.4 1.5-.9 1.6-1.5 3.5-2.1 3.5-1.5 3.5-1.9 3.7-2.4 8.3-4.5c4.5-2.1 11.6-5.5 15.7-7.6 8.2-4.1 9-4.3 10.6-3.2M78 122.4c3 1.5 7.3 3.8 9.5 5.1 2.2 1.4 5.5 3.2 7.4 4 1.8.9 3.8 2.1 4.5 2.6 1.3 1.2 6.8 4.1 11.9 6.4 2 1 3.7 2.1 3.7 2.5s2 1.5 4.5 2.4c2.5 1 4.5 2.1 4.5 2.6s1.5 1.3 3.3 1.9 4.2 1.8 5.3 2.7c3.2 2.6 36.8 19.4 52.9 26.4 2.2.9 6 2.6 8.5 3.8 2.5 1.1 6.2 2.7 8.3 3.6 2 .9 5.4 2.3 7.5 3.2 2 .9 5.5 2.4 7.7 3.4 5.2 2.3 10.4 4.5 13.5 5.8 10.1 3.9 21.5 8.9 26 11.4.8.4 2.8 1.5 4.4 2.4 4 2.2 14.3 13 18.6 19.4.8 1.2 2 2.8 2.6 3.4.5.6 1.3 1.8 1.7 2.6s2.1 3.9 3.7 6.9 2.8 5.7 2.6 5.9c-.6.5-22.8-5.8-24.1-6.8-.5-.4-5.7-2.3-11.5-4-5.8-1.8-10.9-3.6-11.5-4-.5-.5-5-2-10-3.5-4.9-1.5-9.4-3.1-10-3.5-.5-.5-3.6-1.6-6.8-2.5s-7-2.3-8.5-3.1-3.2-1.4-3.8-1.4c-.7 0-2.5-.7-4-1.5-1.6-.8-3.6-1.5-4.4-1.5-.9 0-2-.4-2.5-.9-.6-.4-3.2-1.6-6-2.6-4.8-1.6-6.1-2.1-13-5-1.6-.7-4.3-1.8-6-2.5-2.9-1.2-5.8-2.5-15.5-6.9-6.7-3-47-23.1-53.7-26.8-3.2-1.7-7-3.7-8.5-4.3-1.6-.7-2.8-1.6-2.8-2 0-.5-1.6-1.4-3.5-2s-3.5-1.5-3.5-2c0-.4-1.1-1.1-2.5-1.4-1.4-.4-2.5-1.1-2.5-1.6 0-.6-.6-1-1.4-1s-2.1-.6-2.8-1.3c-2-1.8-5-3.7-7-4.3-1-.4-1.8-.9-1.8-1.3 0-.3-1.3-1.2-2.9-1.9-4.1-1.8-8.1-6.1-8.1-8.6 0-1.1 1-3.3 2.3-4.9 1.2-1.5 3.3-4.1 4.7-5.8 1.4-1.8 3.5-4.3 4.7-5.6 1.2-1.4 2.3-2.8 2.5-3.1.4-1 5.2-4.1 5.8-3.8.3.1 3 1.4 6 3m-27.7 73.2c3.9 2 7.4 4 7.7 4.4.3.5 5 2.9 10.5 5.5 5.5 2.5 10.2 4.9 10.5 5.4.6 1 52.8 26.5 63 30.9 7.2 3.1 18.4 7.9 23.5 10.2 2.2 1 5.4 2.3 7 3 1.7.7 4.4 1.8 6 2.5 4.7 2 8.8 3.7 11.5 4.8 1.4.5 3.6 1.4 5 2 1.4.5 3.4 1.3 4.5 1.7 1.1.5 3.6 1.5 5.7 2.4 2 .9 4.3 1.6 5.1 1.6.9 0 1.8.4 2.2.9.3.5 1.9 1.2 3.6 1.6s4.2 1.3 5.7 2.1 3.4 1.4 4.3 1.4c.8 0 1.9.4 2.5.9.5.5 6.3 2.6 12.9 4.6s12.5 4.1 13 4.5c.6.4 10.2 3.8 21.5 7.5 11.3 3.6 20.6 6.8 20.8 7 .7.7-6.7 14.8-8 15.3-.4.2-.8.9-.8 1.6 0 .6-1.2 1.9-2.7 2.8-2.7 1.5-3.5 1.3-19.3-3.8-9.1-2.9-17.3-5.8-18.2-6.4-1-.5-2.6-1-3.6-1s-2.2-.4-2.8-.9c-.5-.5-5.4-2.3-10.9-4-5.5-1.8-11.3-3.8-13-4.6-1.6-.7-4.3-1.7-5.9-2.1s-4.1-1.3-5.5-2c-1.4-.8-4.1-1.7-5.9-2s-3.5-1-3.8-1.5-1.2-.9-2.1-.9c-.8 0-3.1-.7-5.1-1.6-3.8-1.6-6.7-2.9-11.2-4.7-7.6-3-18.1-7.6-31.5-13.7-5.6-2.5-17.5-8.3-45-21.6-6-2.9-13-6.3-15.5-7.4-2.5-1.2-7.5-3.8-11.1-5.8-3.7-2-8.6-4.8-11-6.1-4.8-2.5-8.9-5.9-8.9-7.3 0-.5-.4-1.4-1-2.1-1.6-1.9-8-14.6-8-15.8 0-.6-.6-2.5-1.4-4.2-4.4-10.4-4.6-10.2 5.7-5.1m115.2 133.5c.5.5 1.5.9 2.3.9s2.9.7 4.8 1.5 4.9 2.2 6.8 3 4.1 1.5 4.9 1.5c.9 0 1.8.4 2.2.9.3.5 2 1.3 3.7 1.7 1.8.3 3.9 1 4.8 1.4 4 2.1 9 4 10.3 4 .9 0 1.8.4 2.2.9.3.5 2 1.3 3.7 1.7 1.8.3 3.9 1 4.8 1.4 4 2.1 9 4 10.3 4 .9 0 1.8.4 2.2.9.3.5 1.9 1.2 3.6 1.6s4.2 1.3 5.7 2.1 3.5 1.4 4.4 1.4 2 .4 2.3 1c.3.5 1.5 1 2.6 1 1 0 1.9.4 1.9 1 0 .5-.4 1-.8 1s-2.8 1.8-5.2 4c-6.2 5.6-6.8 6-8 6-.5 0-1 .4-1 1 0 .5-.7 1-1.5 1s-1.5.3-1.5.8c0 .8-2.6 2.3-7.2 4.2-1.6.7-2.8 1.5-2.8 2 0 .4-2 1.5-4.5 2.4-2.5 1-4.5 2.1-4.5 2.5 0 .5-4.1 2.7-9.2 5.1-5.1 2.3-9.8 4.9-10.6 5.6-1.4 1.5-6 2.9-6.7 2.2-.3-.2-1.4-4.2-2.5-8.9-1.2-4.6-2.5-9.8-3-11.4-.5-1.7-1.7-5.5-2.6-8.5s-2.3-7.1-3.1-9-1.9-4.4-2.3-5.5c-.5-1.1-3.6-7.6-6.9-14.4-3.4-6.8-6.1-12.8-6.1-13.3 0-1 5.1 0 6.5 1.3"/></svg>