<svg version="1.1" id="Layer_1" xmlns="http://www.w3.org/2000/svg" xmlns:xlink="http://www.w3.org/1999/xlink" x="0px" y="0px"
	 width="100%" viewBox="0 0 53 66" enable-background="new 0 0 53 66" xml:space="preserve">
<path fill="#FFFFFF" opacity="1.000000" stroke="none" 
	d="
M46.775505,55.447834 
	C46.805443,58.602570 50.905441,62.916195 45.408833,63.743385 
	C40.746761,64.444984 41.932522,59.191570 41.171452,56.575756 
	C40.048584,52.716442 40.031189,48.535492 39.503532,44.164623 
	C36.936737,44.032513 34.192207,43.891254 31.449476,43.750088 
	C30.989721,48.830700 30.637321,54.325157 29.885664,59.764442 
	C29.723307,60.939312 28.123472,61.915539 27.185764,62.983261 
	C26.459366,61.718555 25.084776,60.431152 25.128109,59.193394 
	C25.258080,55.480888 25.422903,51.620140 26.549576,48.132347 
	C27.773535,44.343403 26.065334,43.236557 23.122778,43.025059 
	C15.785539,42.497688 12.822614,38.484535 12.029991,31.409742 
	C11.612089,27.679638 11.585167,23.883152 10.859694,20.220024 
	C10.519309,18.501312 8.927847,17.037451 7.932974,15.439651 
	C6.384443,12.952655 4.861169,10.449933 2.829298,7.143714 
	C10.048398,8.650394 13.678677,13.658844 14.068243,20.318716 
	C14.360959,25.322870 15.148505,30.298178 15.719050,35.285950 
	C16.184772,39.357380 19.048214,39.992676 22.068344,40.000923 
	C24.328308,33.879421 26.527525,27.922462 28.618959,22.257456 
	C26.466560,19.928795 23.155670,17.875326 22.385210,15.113230 
	C21.490210,11.904654 22.690977,8.051469 23.308119,4.535283 
	C23.421989,3.886516 25.077272,3.096500 26.036734,3.075180 
	C31.989498,2.942906 37.953239,2.870225 43.896412,3.144459 
	C44.956120,3.193357 46.574318,4.820304 46.818153,5.957903 
	C47.293350,8.174931 47.388077,10.656111 46.879738,12.851793 
	C46.332973,15.213413 45.493404,18.471598 43.753143,19.390173 
	C40.217968,21.256172 40.940990,23.128321 42.228256,25.670012 
	C43.523350,28.227154 44.853851,30.774286 45.984703,33.404957 
	C48.037544,38.180431 46.318607,42.142147 42.914738,45.848145 
	C44.117912,48.867809 45.355114,51.972874 46.775505,55.447834 
z"/>
</svg>