<svg version="1.1" id="Layer_1" xmlns="http://www.w3.org/2000/svg" xmlns:xlink="http://www.w3.org/1999/xlink" x="0px" y="0px"
	 width="100%" viewBox="0 0 272 288" enable-background="new 0 0 272 288" xml:space="preserve">
<path fill="#ffffff" opacity="1.000000" stroke="none" 
	d="
M243.000000,1.000000 
	C244.066666,1.000000 245.133347,1.000000 246.703735,1.410800 
	C246.591599,6.576717 245.678970,11.317086 245.441757,16.091017 
	C245.194916,21.058126 242.952026,23.383991 238.114456,24.400221 
	C219.817276,28.243919 201.599396,32.464928 183.303757,36.316418 
	C180.712708,36.861877 179.715393,38.025005 178.979599,40.299324 
	C175.858643,49.946335 172.606216,59.550964 169.373138,69.161438 
	C168.838455,70.750809 168.499496,72.166382 169.108231,73.949921 
	C170.768005,78.812744 172.005524,83.818275 173.592682,88.708076 
	C174.126190,90.351723 174.449173,92.626457 176.731934,92.764420 
	C178.913116,92.896248 179.644989,90.812279 180.563202,89.290970 
	C185.887878,80.469124 191.367233,71.730339 196.351013,62.718334 
	C198.209030,59.358562 200.478714,58.551804 203.956284,58.576355 
	C220.277847,58.691597 236.615356,58.211788 252.917221,58.789497 
	C261.774933,59.103397 269.384430,58.626392 273.000000,49.000000 
	C273.000000,51.700012 273.000000,54.400028 272.756348,57.800682 
	C270.539886,62.739799 267.083496,63.515648 262.696381,63.468597 
	C244.722641,63.275841 226.744049,63.522343 208.770737,63.310699 
	C204.313171,63.258209 201.299271,64.349739 199.045853,68.436584 
	C193.993271,77.600067 188.895920,86.773354 183.168121,95.517754 
	C179.420898,101.238503 178.640823,106.496704 181.222534,112.836533 
	C182.706253,116.480026 184.154755,117.312836 187.843170,115.982521 
	C199.399826,111.814301 211.053818,107.911949 222.714859,104.041405 
	C224.567734,103.426399 226.552505,101.894836 229.008484,103.666954 
	C227.270905,107.757210 224.260422,111.228935 223.358002,116.038147 
	C228.677872,115.071785 233.351028,113.493118 238.034470,111.895256 
	C240.020432,111.217705 242.000595,110.277542 244.308380,111.090714 
	C253.851303,114.453270 263.432739,117.706558 273.000000,121.000000 
	C273.000000,124.030594 273.000000,127.061188 272.689362,130.387268 
	C265.047577,126.987839 256.961517,125.670639 249.178650,123.420303 
	C246.544235,122.658592 244.004730,120.763878 241.039078,121.809799 
	C232.751892,124.732513 224.437988,127.592743 216.242538,130.757095 
	C211.694946,132.512970 209.138870,139.706909 211.537720,143.052933 
	C216.760101,150.337357 222.009705,157.602264 227.252563,164.871979 
	C228.110748,166.061935 229.100616,167.202576 228.427948,169.201859 
	C217.083664,167.448502 205.761200,165.698532 193.789185,163.848160 
	C194.596146,165.203400 194.863205,165.825455 195.278549,166.324005 
	C205.068954,178.075714 215.734116,189.017197 226.465469,199.894821 
	C227.884079,201.332794 229.616837,202.226501 231.689148,202.600906 
	C238.200317,203.777328 244.648178,205.369904 251.193329,206.274841 
	C258.406708,207.272156 265.599396,211.087204 273.000000,207.000000 
	C273.000000,210.030594 273.000000,213.061188 272.615814,216.572388 
	C269.589050,216.922684 267.228943,218.460770 264.432770,217.980286 
	C254.651718,216.299530 244.848724,214.706879 235.010712,213.409653 
	C226.871689,212.336472 220.143600,209.429382 214.420975,203.063080 
	C205.865417,193.545181 196.453308,184.794876 187.346939,175.777283 
	C186.184570,174.626236 185.329224,172.523376 182.656219,173.575348 
	C183.213791,176.779953 183.072830,180.150238 185.368652,182.824905 
	C192.276138,190.872223 199.179794,198.923813 206.177979,206.892029 
	C218.651703,221.094711 231.169205,235.259232 243.734573,249.380829 
	C245.528656,251.397095 245.670029,253.590744 245.053024,255.890320 
	C242.088028,266.941010 239.026962,277.965942 236.000000,289.000000 
	C233.299988,289.000000 230.599976,289.000000 227.578598,288.649353 
	C229.460159,278.941864 231.383057,269.506042 233.988754,260.262756 
	C235.219940,255.895218 234.067093,253.198914 231.051437,250.181580 
	C223.776306,242.902328 216.534561,235.546066 209.837479,227.741928 
	C196.130020,211.768524 181.974182,196.474716 161.767624,188.529388 
	C160.758423,188.132568 159.801941,187.111191 158.333374,188.218140 
	C158.489685,188.887314 158.543198,189.712570 158.867020,190.412827 
	C163.329742,200.063828 167.745499,209.738235 172.363724,219.314804 
	C174.100815,222.916885 174.689392,226.342896 173.757050,230.348984 
	C170.941238,242.447891 168.500381,254.633591 165.834381,266.768097 
	C165.026062,270.447296 165.069626,273.450439 167.752731,276.831146 
	C170.759979,280.620270 174.763306,283.943970 176.000000,289.000000 
	C171.310745,289.000000 166.621490,289.000000 161.312134,288.704956 
	C158.648499,286.233704 156.789581,283.837097 154.517456,281.933777 
	C151.237198,279.185974 150.129517,275.851379 150.639130,271.760254 
	C151.825378,262.237366 153.028137,252.716232 154.143326,243.184906 
	C155.036118,235.554337 157.385635,227.922836 151.813889,220.728317 
	C148.590530,216.566147 146.581177,211.484772 143.758606,206.984451 
	C141.627991,203.587402 140.123413,199.706131 136.772873,196.590256 
	C135.661682,202.382889 137.304810,207.907410 135.537506,213.588745 
	C128.907532,210.175095 122.782356,207.021378 117.040680,204.065109 
	C115.316879,204.719254 115.199478,205.835983 114.979416,206.750412 
	C110.789566,224.160385 106.616043,241.574448 102.520584,259.006805 
	C101.921181,261.558136 102.669449,263.625183 104.760162,265.649139 
	C112.648888,273.285950 120.275352,281.193695 128.000000,289.000000 
	C125.629440,289.000000 123.258888,289.000000 120.285576,288.708282 
	C113.642181,280.594788 105.172829,275.266174 98.646103,267.920227 
	C96.486282,265.489288 95.503181,263.483246 96.378899,259.994263 
	C99.361710,248.110275 102.052513,236.139938 104.375565,224.110031 
	C105.256866,219.546188 107.410553,215.065948 106.510262,209.729736 
	C98.496056,214.575027 92.454880,221.536148 83.628448,226.285156 
	C87.487358,206.576050 91.147034,187.937164 94.780716,169.293213 
	C95.852806,163.792450 94.359833,162.355331 89.182137,164.089035 
	C70.764565,170.255951 52.384460,176.534882 33.960926,182.683807 
	C30.624928,183.797180 29.199322,185.742783 29.319019,189.315552 
	C29.519547,195.300858 29.159075,201.307663 29.437202,207.286697 
	C29.617825,211.169647 28.089567,213.084824 24.435959,213.971680 
	C20.573797,214.909180 16.806915,216.232742 12.979387,217.320740 
	C5.618263,219.413162 5.603786,219.466339 8.079677,226.909714 
	C11.905619,238.411758 15.594912,249.960205 19.534912,261.422729 
	C20.524187,264.300812 20.075006,266.503357 18.276104,268.789398 
	C15.098198,272.827881 12.275280,277.167450 8.878627,281.004700 
	C6.494866,283.697662 6.464799,286.134155 8.000000,289.000000 
	C5.768104,289.000000 3.536207,289.000000 1.000000,289.000000 
	C1.000000,287.672302 1.000000,286.336121 1.183538,284.221924 
	C3.560312,280.538818 5.408389,277.269287 8.014926,274.800568 
	C14.474648,268.682373 15.690234,262.165009 11.756261,254.052597 
	C7.524495,245.326096 6.081575,235.432129 1.000000,227.000000 
	C1.000000,223.638718 1.000000,220.277420 1.376946,216.343292 
	C8.097788,213.835159 14.418265,211.817627 20.796026,210.001236 
	C23.734812,209.164261 24.687105,207.361923 24.646221,204.484772 
	C24.554024,197.996582 24.808315,191.499115 24.559948,185.019272 
	C24.424276,181.479645 25.610218,179.702942 29.024719,178.530716 
	C45.343910,172.928299 61.587799,167.105576 77.838791,161.306046 
	C82.366791,159.690125 86.827606,157.885941 91.319244,156.168121 
	C84.303123,153.334412 77.092514,155.581451 69.915428,153.634018 
	C76.622917,143.578110 84.924103,135.596161 91.359688,125.315254 
	C83.071266,122.403763 75.146133,120.353065 67.887825,116.900520 
	C56.652393,111.556183 45.949352,110.767830 34.063213,115.252495 
	C22.347773,119.672760 9.533024,121.444580 1.000000,132.000000 
	C1.000000,128.307098 1.000000,124.614182 1.292332,120.300697 
	C5.314232,116.431122 8.920802,113.223122 13.941032,111.722702 
	C24.268234,108.636154 34.444031,105.041237 44.671509,101.623734 
	C48.766426,100.255424 52.716026,100.388008 56.852978,101.790985 
	C68.007774,105.573959 79.248901,109.102684 90.461845,112.713425 
	C91.498688,113.047302 92.589714,113.921646 93.964767,112.277557 
	C91.269714,106.861320 88.470680,101.236115 85.422920,95.111046 
	C90.919823,94.877617 95.092133,97.119766 100.322243,96.615166 
	C96.736504,86.515099 93.191864,76.754799 89.828308,66.932472 
	C88.683769,63.590187 86.579796,61.378414 83.676270,59.474361 
	C72.701805,52.277641 61.859226,44.880081 50.927860,37.617035 
	C49.352081,36.570053 47.941399,35.512642 47.452507,33.592930 
	C46.608433,30.278492 44.405533,29.292423 41.119774,29.355562 
	C33.300732,29.505812 25.472099,29.228935 17.656368,29.447462 
	C14.062659,29.547939 11.774546,28.275970 9.858028,25.300205 
	C7.267385,21.277731 4.887172,17.029915 1.000000,14.000000 
	C1.000000,11.299986 1.000000,8.599973 1.274855,5.655590 
	C5.277368,10.656267 9.038124,15.878234 12.718390,21.156324 
	C14.495705,23.705278 16.848888,24.509686 19.912567,24.709698 
	C26.241007,25.122850 32.377995,23.361692 38.683369,23.555937 
	C45.518921,23.766510 46.595860,22.053783 45.287216,15.163183 
	C44.402615,10.505321 43.815491,5.776366 44.000000,1.000000 
	C47.030594,1.000000 50.061188,1.000000 53.688644,1.365859 
	C56.277370,7.735465 57.380909,13.955877 58.317112,20.170988 
	C59.026306,24.879061 61.185333,27.985704 65.446648,30.089600 
	C72.605553,33.624100 79.454849,37.815243 86.719902,41.098366 
	C97.749519,46.082726 106.095490,52.906696 110.021683,65.132446 
	C112.339523,72.349960 115.647194,79.538788 120.315453,85.930748 
	C119.204521,80.296577 119.296127,74.766243 120.108879,68.371918 
	C125.263145,73.246201 127.021782,79.517426 132.444626,83.358505 
	C130.468750,69.234100 128.572708,55.640629 126.661751,42.049252 
	C126.212730,38.855713 127.846428,36.860119 130.115555,34.829872 
	C136.385681,29.219864 143.231049,24.206339 148.750381,17.745152 
	C144.830093,11.364861 138.956909,6.965184 135.000000,1.000000 
	C137.041672,1.000000 139.083328,1.000000 141.732513,1.285920 
	C145.186203,4.530595 148.000290,7.521201 150.893097,10.433631 
	C152.187851,11.737179 153.619720,12.939230 155.650970,11.695175 
	C159.771088,9.171790 163.763809,6.553429 164.000000,1.000000 
	C166.370560,1.000000 168.741104,1.000000 171.681061,1.373893 
	C173.765884,5.127536 173.434296,7.515316 170.267700,10.374670 
	C159.914078,19.723675 150.118286,29.687483 139.965607,39.263947 
	C137.268097,41.808372 137.001923,44.748978 137.520630,47.927082 
	C140.160004,64.098862 142.743546,80.283257 145.739395,96.390190 
	C146.287369,99.336380 145.245163,103.177925 148.605850,105.340218 
	C150.951492,104.229851 150.898315,101.971489 151.543518,100.186211 
	C159.162872,79.102837 166.828918,58.034798 174.189072,36.860661 
	C175.563248,32.907360 178.046097,31.471941 181.673462,30.736008 
	C199.843964,27.049500 217.996826,23.275940 236.172409,19.615000 
	C238.771301,19.091528 240.333389,18.019592 240.706879,15.203841 
	C241.337250,10.451452 242.222137,5.732824 243.000000,1.000000 
z"/>
</svg>