<svg xmlns="http://www.w3.org/2000/svg" viewBox="0 0 64 64" role="img" aria-label="Swift Swim">
  <path d="M8 24c4 0 6-4 10-4s6 4 10 4 6-4 10-4 6 4 10 4 6-4 8-4" fill="none" stroke="#fff" stroke-width="4" stroke-linecap="round"/>
  <path d="M8 34c4 0 6-4 10-4s6 4 10 4 6-4 10-4 6 4 10 4 6-4 8-4" fill="none" stroke="#fff" stroke-width="4" stroke-linecap="round"/>
  <path d="M8 44c4 0 6-4 10-4s6 4 10 4 6-4 10-4 6 4 10 4 6-4 8-4" fill="none" stroke="#fff" stroke-width="4" stroke-linecap="round"/>
</svg>
